<?xml version="1.0" encoding="UTF-8"?>
<svg id="Layer_1" data-name="Layer 1" xmlns="http://www.w3.org/2000/svg" viewBox="0 0 847.16 704.99">
  <defs>
    <style>
      .cls-1 {
        fill: #e091cc;
      }
    </style>
  </defs>
  <path class="cls-1" d="M445.46,703.68l389.97-269.43c13.17-9.1,15.66-27.55,5.38-39.81l-161.09-192.2c-17.22-20.55-23.95-47.91-18.22-74.1h0c39.58,7.53,86.35,21.6,126.24,40.15,8.09,4.25,7.04,7.03,2.38,9.77-5.75-3.49-12.87-4.97-20.41-3.24-10.3,2.36-18.47,10.84-20.42,21.23-3.26,17.36,9.97,32.51,26.74,32.51,6.65,0,12.73-2.39,17.46-6.34,16.23-11.22,22.47-37.57,7.79-60.64-30.94-48.63-106.57-107.82-128.98-124.79-2.97-2.25-7.26-.65-8.06,3l-29.36,134.2,26.7,31.86c98.72,146.51,39.74,282.79-181.74,453.17-4.48,3.44-10.33-2.08-7.13-6.74,61.09-88.95,117.55-172.81,131.16-193.05,1.92-2.85,2.1-6.51.5-9.56l-53.57-101.85c-10.54-20.03-13.72-43.12-9.01-65.26L598.63,15.64c1.14-5.37-5.01-9.26-9.37-5.92l-134.67,103.07c-11.23,8.59-14.63,24.03-8.05,36.55l59.83,113.85c10.63,20.24,13.77,43.58,8.84,65.9l-80.95,367.06c-1.42,6.44,5.79,11.28,11.21,7.53Z"/>
  <path class="cls-1" d="M420.33,696.15l-80.17-363.54c-4.92-22.32-1.79-45.67,8.84-65.9l61.62-117.26c6.45-12.27,3.32-27.39-7.47-36.09L262.57,0,84.12,105.63c-3.1,1.84-3.76,6.04-1.38,8.74l128.21,145.01c3.9,4.41,11.12.79,9.92-4.97l-28.51-136.89c-6.18-29.67,7.2-59.98,33.28-75.41l29.92-17.71,57.63,261.34c4.92,22.32,1.79,45.67-8.84,65.9l-51.89,98.75c-1.58,3.01-1.41,6.63.45,9.48,14.09,21.53,75.07,114.41,127.88,190.39,3.24,4.66-2.69,10.18-7.12,6.65C170.28,494.57,119.86,389.08,120.31,298.03c28.02,7.72,57,17.88,83.07,30,8.09,4.25,7.04,7.03,2.38,9.77-5.75-3.49-12.87-4.97-20.41-3.24-10.3,2.36-18.47,10.83-20.42,21.22-3.27,17.36,9.96,32.52,26.73,32.52,6.65,0,12.73-2.39,17.46-6.34,16.23-11.22,22.47-37.57,7.79-60.64-.44-.69-.9-1.4-1.4-2.13-51.27-75.44-167.3-58.46-196.71,27.89L1.58,397.61c-4.13,11.58.03,24.5,10.14,31.49l397.39,274.58c5.42,3.75,12.63-1.09,11.21-7.53Z"/>
</svg>